# xmcd CD database file
#
# Track frame offsets:
#	150
#	13047
#	27327
#	45345
#	58505
#	71502
#	89510
#	102302
#	123887
#	143247
#	158752
#	176912
#	188942
#
# Disc length: 2706 seconds
#
# Revision: 0
# Processed by: cddbd v1.5.2PL0 Copyright (c) Steve Scherf et al.
# Submitted via: CDex 1.51
#
DISCID=ad0a900d
DTITLE=Bobby Goldsboro - The Un-Released Performances
DYEAR=1997
DGENRE=Country
TTITLE0=Fly Like An Eagle
TTITLE1=Watchin Scotty Grow
TTITLE2=Guitar Charlie Watson
TTITLE3=With Pen In Hand
TTITLE4=Just the Way Merle Travis Used to Play
TTITLE5=The Cowboy and the Lady
TTITLE6=The Muddy Mississippi Line
TTITLE7=Summer The First Time
TTITLE8=Starring Out The Window Looking Back Inside At Me Blues
TTITLE9=The Honky Tonk Blues
TTITLE10=Honey
TTITLE11=I'm A Drifter
TTITLE12=Love Ain't Never Hurt Nobody
EXTD=YEAR: 1997
EXTT0=
EXTT1=
EXTT2=
EXTT3=
EXTT4=
EXTT5=
EXTT6=
EXTT7=
EXTT8=
EXTT9=
EXTT10=
EXTT11=
EXTT12=
PLAYORDER=
